<svg xmlns="http://www.w3.org/2000/svg" viewBox="0 0 480.27 539"><defs><style>.cls-1{fill:#2bc4a7;}</style></defs><g id="圖層_2" data-name="圖層 2"><g id="圖層_2-2" data-name="圖層 2"><rect class="cls-1" x="215.5" width="46" height="46" rx="15.41"/><rect class="cls-1" x="215.5" y="493" width="46" height="46" rx="14.84"/><rect class="cls-1" x="430.02" y="122.18" width="46" height="46" rx="14.83" transform="matrix(0.87, -0.5, 0.5, 0.87, -11.9, 245.96)"/><rect class="cls-1" x="4.02" y="368.18" width="46" height="46" rx="12.03" transform="translate(-191.97 65.92) rotate(-30)"/><rect class="cls-1" x="4.02" y="122.18" width="46" height="46" rx="13.81" transform="translate(76.21 5.94) rotate(30)"/><rect class="cls-1" x="430.02" y="368.18" width="46" height="46" rx="11.4" transform="translate(256.29 -174.1) rotate(30)"/></g><g id="圖層_3" data-name="圖層 3"><rect class="cls-1" x="178.5" y="79" width="120" height="44" rx="13.68"/><rect class="cls-1" x="178.5" y="412" width="120" height="44" rx="13.3"/><rect class="cls-1" x="32.02" y="161.18" width="120" height="44" rx="12.86" transform="translate(-112.63 171.28) rotate(-60)"/><rect class="cls-1" x="326.02" y="330.18" width="120" height="44" rx="11.81" transform="translate(-111.99 510.39) rotate(-60)"/><rect class="cls-1" x="326.02" y="162.18" width="120" height="44" rx="12.73" transform="translate(419.52 610.58) rotate(-120)"/><rect class="cls-1" x="35.02" y="330.18" width="120" height="44" rx="12.44" transform="translate(-162.47 610.57) rotate(-120)"/></g><g id="圖層_4" data-name="圖層 4"><rect class="cls-1" x="138.5" y="164" width="203" height="46" rx="12.5"/><rect class="cls-1" x="137.5" y="324" width="203" height="46" rx="13.83"/><rect class="cls-1" x="70.52" y="203.18" width="203" height="46" rx="12.34" transform="translate(-109.87 262.06) rotate(-60)"/><rect class="cls-1" x="208.52" y="286.18" width="203" height="46" rx="11.77" transform="translate(-112.75 423.08) rotate(-60)"/><rect class="cls-1" x="208.52" y="202.18" width="203" height="46" rx="12.33" transform="translate(270.01 606.26) rotate(-120)"/><rect class="cls-1" x="70.52" y="285.18" width="203" height="46" rx="12.04" transform="translate(-8.87 611.25) rotate(-120)"/></g></g></svg>