<svg xmlns="http://www.w3.org/2000/svg" viewBox="0 0 488.84 539"><defs><style>.cls-1{fill:#2bc4a7;}</style></defs><g id="圖層_2" data-name="圖層 2"><g id="圖層_2-2" data-name="圖層 2"><rect class="cls-1" x="219.9" width="46" height="46"/><rect class="cls-1" x="219.9" y="493" width="46" height="46"/><rect class="cls-1" x="434.42" y="122.18" width="46" height="46" transform="translate(-11.31 248.16) rotate(-30)"/><rect class="cls-1" x="8.42" y="368.18" width="46" height="46" transform="translate(-191.38 68.12) rotate(-30)"/><rect class="cls-1" x="8.42" y="122.18" width="46" height="46" transform="matrix(0.87, 0.5, -0.5, 0.87, 76.8, 3.74)"/><rect class="cls-1" x="434.42" y="368.18" width="46" height="46" transform="translate(256.87 -176.3) rotate(30)"/></g><g id="圖層_3" data-name="圖層 3"><rect class="cls-1" x="182.9" y="79" width="120" height="44"/><rect class="cls-1" x="182.9" y="412" width="120" height="44"/><rect class="cls-1" x="36.42" y="161.18" width="120" height="44" transform="translate(-110.43 175.09) rotate(-60)"/><rect class="cls-1" x="330.42" y="330.18" width="120" height="44" transform="translate(-109.79 514.2) rotate(-60)"/><rect class="cls-1" x="330.42" y="162.18" width="120" height="44" transform="translate(426.12 614.39) rotate(-120)"/><rect class="cls-1" x="39.42" y="330.18" width="120" height="44" transform="translate(-155.87 614.38) rotate(-120)"/></g><g id="圖層_4" data-name="圖層 4"><rect class="cls-1" x="142.9" y="164" width="203" height="46"/><rect class="cls-1" x="141.9" y="324" width="203" height="46"/><rect class="cls-1" x="74.92" y="203.18" width="203" height="46" transform="matrix(0.5, -0.87, 0.87, 0.5, -107.67, 265.88)"/><rect class="cls-1" x="212.92" y="286.18" width="203" height="46" transform="matrix(0.5, -0.87, 0.87, 0.5, -110.55, 426.89)"/><rect class="cls-1" x="212.92" y="202.18" width="203" height="46" transform="translate(276.61 610.07) rotate(-120)"/><rect class="cls-1" x="74.92" y="285.18" width="203" height="46" transform="translate(-2.27 615.06) rotate(-120)"/></g></g></svg>